<?xml version="1.0" encoding="UTF-8"?>
<!DOCTYPE svg PUBLIC "-//W3C//DTD SVG 1.1//EN" "http://www.w3.org/Graphics/SVG/1.1/DTD/svg11.dtd">
<!-- Creator: CorelDRAW 2019 (64-Bit) -->
<svg xmlns="http://www.w3.org/2000/svg" xml:space="preserve" width="1521px" height="1080px" version="1.1" style="shape-rendering:geometricPrecision; text-rendering:geometricPrecision; image-rendering:optimizeQuality; fill-rule:evenodd; clip-rule:evenodd"
viewBox="0 0 1521 1080.09"
 xmlns:xlink="http://www.w3.org/1999/xlink"
 xmlns:xodm="http://www.corel.com/coreldraw/odm/2003">
 <defs>
  <style type="text/css">
   <![CDATA[
    .fil7 {fill:#FEFEFE}
    .fil5 {fill:#FCD066}
    .fil4 {fill:#FDF8B4}
    .fil6 {fill:#EEEFEE}
    .fil2 {fill:#89C45F}
    .fil1 {fill:#5FB74E}
    .fil0 {fill:#4D4C4B}
    .fil8 {fill:#3CAF41}
    .fil3 {fill:#4A9E4B}
   ]]>
  </style>
 </defs>
 <g id="Layer_x0020_1">
  <metadata id="CorelCorpID_0Corel-Layer"/>
  <g id="_2140068228016">
   <path class="fil0" d="M760.63 153.99c31.33,-15.65 69.33,-24.19 104.1,-27.2l39.08 -3.41c42.81,-3.68 85.64,-1.42 128.5,-1.42l23.5 0 0 23.5c0,104.34 0,208.71 0,313.07l0 12c0,107.73 -88.09,195.82 -195.85,195.82l-394.77 0 0 -544.39 23.49 0c42.9,0 85.58,-2.82 128.47,0.51l39.07 2.95c37.12,2.79 71.1,11.8 104.41,28.57z"/>
   <path class="fil1" d="M488.68 145.46l0 268.19 0 44.88 0 12 0 172.33 172.3 0 27.09 0 171.89 0c94.8,0 172.35,-77.57 172.35,-172.33l0 -12c0,-103.75 0,-204.96 0,-313.07 -41.19,0 -84.69,-1.01 -126.46,1.35l-39.09 3.37c-38.25,4.65 -76.95,13.58 -106.27,30.5 -31.65,-18.29 -66.17,-27.38 -106.04,-31.85l-39.08 -2.97c-42.62,-1.98 -86.31,-0.4 -126.69,-0.4z"/>
   <path class="fil2" d="M537.42 642.86l123.56 0 27.09 0 171.89 0c42,0 80.58,-15.23 110.54,-40.4 -34.99,-81.34 -115.87,-138.26 -210.02,-138.26 -109.09,0 -200.31,76.42 -223.06,178.66z"/>
   <path class="fil3" d="M760.49 642.86l101.48 -1.5c41.44,0 79.16,-14.61 108.54,-38.89 37.83,-31.26 61.8,-78.6 61.8,-131.94l0 -12c0,-103.75 0,-204.96 0,-313.07 -41.19,0 -84.69,-1.01 -126.46,1.35l-39.09 3.37c-38.25,4.65 -76.95,13.58 -106.27,30.5l0 462.18z"/>
   <path class="fil1" d="M760.49 642.86l100.1 0c42,0 79.96,-15.22 109.92,-40.39 -34.61,-80.42 -117.21,-136.99 -210.02,-138.23l0 178.62z"/>
   <path class="fil0" d="M905.85 130.53c-7.47,-73.37 -69.47,-130.53 -144.74,-130.53 -75.24,0 -137.21,56.67 -145.74,129.61l39.08 2.98c6.91,-52.68 51.81,-93.41 106.51,-93.41 54.67,0 99.97,41.43 105.8,94.71l39.09 -3.36z"/>
   <path class="fil0" d="M824.06 487.13c-17.03,18.01 -34.04,36.03 -51.06,54.06l-12.52 13.27 -12.5 -13.27c-17.03,-18 -34.04,-36.05 -51.06,-54.06l-8.81 -9.35 6.44 -11.12c13.65,-23.54 39.19,-36.21 65.93,-36.21 26.77,0 52.29,12.67 65.95,36.21l6.45 11.12 -8.82 9.35z"/>
   <path class="fil4" d="M811.52 475.32c-16.98,18.02 -34.03,36.02 -51.04,54.06 -17.01,-18.04 -34.03,-36.04 -51.05,-54.06 10.75,-18.53 30.93,-27.69 51.05,-27.65 20.13,-0.04 40.31,9.12 51.04,27.65z"/>
   <path class="fil5" d="M811.52 475.32c-16.98,18.02 -34.03,36.02 -51.04,54.06l0 -81.71c20.13,-0.04 40.31,9.12 51.04,27.65z"/>
   <path class="fil0" d="M632.93 213.25c76.25,0 138.09,61.88 138.09,138.1 0,76.25 -61.84,138.1 -138.09,138.1 -76.26,0 -138.08,-61.85 -138.08,-138.1 0,-76.22 61.82,-138.1 138.08,-138.1z"/>
   <path class="fil6" d="M632.93 236.75c63.29,0 114.61,51.32 114.61,114.6 0,63.27 -51.32,114.6 -114.61,114.6 -63.31,0 -114.6,-51.33 -114.6,-114.6 0,-63.28 51.29,-114.6 114.6,-114.6z"/>
   <path class="fil7" d="M632.93 236.75c52.23,0 96.31,34.96 110.12,82.75 -13.81,47.77 -57.89,82.74 -110.12,82.74 -52.25,0 -96.29,-34.97 -110.1,-82.74 13.81,-47.79 57.85,-82.75 110.1,-82.75z"/>
   <path class="fil0" d="M888.05 213.25c76.27,0 138.08,61.88 138.08,138.1 0,76.25 -61.81,138.1 -138.08,138.1 -76.26,0 -138.1,-61.82 -138.1,-138.1 0,-76.22 61.84,-138.1 138.1,-138.1z"/>
   <path class="fil6" d="M888.05 236.75c63.28,0 114.61,51.32 114.61,114.6 0,63.27 -51.33,114.6 -114.61,114.6 -63.29,0 -114.6,-51.33 -114.6,-114.6 0,-63.28 51.31,-114.6 114.6,-114.6z"/>
   <path class="fil7" d="M888.05 236.75c52.22,0 96.3,34.96 110.09,82.75 -13.78,47.77 -57.87,82.74 -110.09,82.74 -52.25,0 -96.31,-34.97 -110.12,-82.74 13.81,-47.79 57.87,-82.75 110.12,-82.75z"/>
   <path class="fil0" d="M647.33 280.08c40.87,0 74.03,33.14 74.03,73.97 0,40.9 -33.16,74.03 -74.03,74.03 -40.9,0 -74.03,-33.13 -74.03,-74.03 0,-13.62 3.71,-26.38 10.15,-37.36 5.28,13.07 18.06,22.24 33.05,22.24 19.68,0 35.66,-15.92 35.66,-35.61 0,-8.87 -3.24,-16.95 -8.56,-23.16 1.23,-0.08 2.49,-0.08 3.73,-0.08z"/>
   <path class="fil0" d="M873.62 280.08c40.91,0 74.05,33.14 74.05,73.97 0,40.9 -33.14,74.03 -74.05,74.03 -40.86,0 -74,-33.13 -74,-74.03 0,-13.62 3.69,-26.38 10.11,-37.36 5.31,13.07 18.12,22.24 33.09,22.24 19.68,0 35.63,-15.92 35.63,-35.61 0,-8.87 -3.2,-16.95 -8.54,-23.16 1.25,-0.08 2.47,-0.08 3.71,-0.08z"/>
  </g>
 </g>
</svg>
